# xmcd CD database file
#
# Track frame offsets:
#	150
#	21253
#	42331
#	61094
#	83054
#	106419
#	128757
#	143061
#	163675
#
# Disc length: 2650 seconds
#
# Revision: 1
# Processed by: cddbd v1.5.2PL0 Copyright (c) Steve Scherf et al.
# Submitted via: NeoAudio 9.9.9
#
DISCID=6f0a5809
DTITLE=Ray Rodriguez y Swing Sabroso - Baila con Swing Sabroso
DYEAR=2006
DGENRE=Salsa
TTITLE0=Lo que quiero es cantar
TTITLE1=You're my everything
TTITLE2=Baila con Swing Sabroso
TTITLE3=Ay que frio
TTITLE4=Song for Tito Puente
TTITLE5=Legado
TTITLE6=Amar y Vivir
TTITLE7=La Rumba que te cura
TTITLE8=Barretto Medley
EXTD=YEAR: 2006
EXTT0=
EXTT1=
EXTT2=
EXTT3=
EXTT4=
EXTT5=
EXTT6=
EXTT7=
EXTT8=
PLAYORDER=
